<?xml version="1.0" encoding="utf-8"?>

<!-- Uploaded to: SVG Repo, www.svgrepo.com, Generator: SVG Repo Mixer Tools -->
<svg fill="#000000" height="800px" width="800px" version="1.1" id="Icons" xmlns="http://www.w3.org/2000/svg" xmlns:xlink="http://www.w3.org/1999/xlink" 
	 viewBox="0 0 32 32" xml:space="preserve">
<g>
	<path d="M25.5,11C23,11,21,9,21,6.6c0-2.1,3.1-5.6,3.8-6.3c0.4-0.4,1.1-0.4,1.5,0C26.9,1,30,4.5,30,6.6C30,9,28,11,25.5,11z"/>
</g>
<path d="M25.5,13c-3.6,0-6.5-2.9-6.5-6.4c0-1.2,0.6-2.6,1.4-3.9C19,2.2,17.5,2,16,2C8.3,2,2,8.3,2,16s6.3,14,14,14s14-6.3,14-14
	c0-1.5-0.2-2.9-0.7-4.2C28.3,12.5,26.9,13,25.5,13z M20,13c1.7,0,3,1.3,3,3c0,0.6-0.4,1-1,1s-1-0.4-1-1c0-0.6-0.4-1-1-1s-1,0.4-1,1
	c0,0.6-0.4,1-1,1s-1-0.4-1-1C17,14.3,18.3,13,20,13z M12,13c1.7,0,3,1.3,3,3c0,0.6-0.4,1-1,1s-1-0.4-1-1c0-0.6-0.4-1-1-1s-1,0.4-1,1
	c0,0.6-0.4,1-1,1s-1-0.4-1-1C9,14.3,10.3,13,12,13z M23.7,19.3c-1,3.4-4.2,5.7-7.7,5.7s-6.7-2.4-7.7-5.7c-0.1-0.3,0-0.6,0.2-0.9
	C8.7,18.1,9,18,9.3,18h13.4c0.3,0,0.6,0.1,0.8,0.4C23.7,18.7,23.8,19,23.7,19.3z"/>
</svg>